<svg xmlns="http://www.w3.org/2000/svg" viewBox="0 0 64 64" role="img" aria-label="Glucksplatz favicon">
  <circle cx="32" cy="8" r="2.8" fill="#f8c500"/>
  <circle cx="39" cy="10" r="3.4" fill="#ffb300"/>
  <circle cx="46" cy="14" r="2.8" fill="#f8c500"/>
  <circle cx="51" cy="20" r="3.1" fill="#ffb300"/>
  <circle cx="55" cy="27" r="3.3" fill="#f8c500"/>
  <circle cx="56" cy="35" r="3.2" fill="#ffb300"/>
  <circle cx="54" cy="43" r="3.1" fill="#f8c500"/>
  <circle cx="49" cy="50" r="3.2" fill="#ffb300"/>
  <circle cx="42" cy="55" r="3.1" fill="#f8c500"/>
  <circle cx="34" cy="57" r="3.3" fill="#ffb300"/>
  <circle cx="26" cy="56" r="3.1" fill="#f8c500"/>
  <circle cx="19" cy="52" r="3.4" fill="#ffb300"/>
  <circle cx="13" cy="46" r="2.9" fill="#f8c500"/>
  <circle cx="10" cy="39" r="3" fill="#ffb300"/>
  <circle cx="9" cy="31" r="3.1" fill="#f8c500"/>
  <circle cx="11" cy="23" r="2.9" fill="#ffb300"/>
  <circle cx="15" cy="16" r="3.3" fill="#f8c500"/>
  <circle cx="22" cy="11" r="2.9" fill="#ffb300"/>
  <circle cx="29" cy="8" r="3.2" fill="#f8c500"/>
  <circle cx="41" cy="18" r="2.1" fill="#e39f00"/>
  <circle cx="48" cy="24" r="2.1" fill="#d99600"/>
  <circle cx="50" cy="33" r="1.9" fill="#f0ac00"/>
  <circle cx="47" cy="42" r="2.1" fill="#d99600"/>
  <circle cx="40" cy="48" r="1.9" fill="#f0ac00"/>
  <circle cx="31" cy="50" r="2.1" fill="#e39f00"/>
  <circle cx="22" cy="48" r="1.9" fill="#d99600"/>
  <circle cx="16" cy="41" r="2" fill="#f0ac00"/>
  <circle cx="14" cy="32" r="1.9" fill="#e39f00"/>
  <circle cx="17" cy="23" r="2" fill="#d99600"/>
  <circle cx="24" cy="17" r="1.9" fill="#f0ac00"/>
  <circle cx="33" cy="15" r="2.1" fill="#e39f00"/>
</svg>
