<svg xmlns="http://www.w3.org/2000/svg" viewBox="0 0 96 96" role="img" aria-label="Glucksplatz logo">
  <circle cx="48" cy="12" r="4" fill="#f8c500"/>
  <circle cx="56" cy="13" r="5" fill="#ffb300"/>
  <circle cx="64" cy="17" r="4" fill="#f8c500"/>
  <circle cx="70" cy="23" r="4.5" fill="#ffb300"/>
  <circle cx="75" cy="31" r="5" fill="#f8c500"/>
  <circle cx="78" cy="39" r="4.5" fill="#ffb300"/>
  <circle cx="79" cy="48" r="5" fill="#f8c500"/>
  <circle cx="78" cy="57" r="4" fill="#ffb300"/>
  <circle cx="74" cy="65" r="5" fill="#f8c500"/>
  <circle cx="68" cy="72" r="4.5" fill="#ffb300"/>
  <circle cx="60" cy="77" r="4.5" fill="#f8c500"/>
  <circle cx="52" cy="80" r="5" fill="#ffb300"/>
  <circle cx="43" cy="81" r="4.5" fill="#f8c500"/>
  <circle cx="35" cy="79" r="5" fill="#ffb300"/>
  <circle cx="27" cy="75" r="4" fill="#f8c500"/>
  <circle cx="21" cy="69" r="5" fill="#ffb300"/>
  <circle cx="17" cy="61" r="4.5" fill="#f8c500"/>
  <circle cx="15" cy="53" r="4" fill="#ffb300"/>
  <circle cx="15" cy="44" r="4.5" fill="#f8c500"/>
  <circle cx="18" cy="36" r="4" fill="#ffb300"/>
  <circle cx="22" cy="28" r="5" fill="#f8c500"/>
  <circle cx="28" cy="22" r="4" fill="#ffb300"/>
  <circle cx="35" cy="17" r="5" fill="#f8c500"/>
  <circle cx="43" cy="14" r="4" fill="#ffb300"/>
  <circle cx="58" cy="23" r="3.5" fill="#e39f00"/>
  <circle cx="66" cy="29" r="3.5" fill="#d99600"/>
  <circle cx="68" cy="39" r="3" fill="#f0ac00"/>
  <circle cx="68" cy="50" r="3.5" fill="#d99600"/>
  <circle cx="64" cy="59" r="3" fill="#f0ac00"/>
  <circle cx="57" cy="66" r="3.5" fill="#e39f00"/>
  <circle cx="48" cy="70" r="3" fill="#d99600"/>
  <circle cx="38" cy="68" r="3.5" fill="#f0ac00"/>
  <circle cx="30" cy="63" r="3" fill="#e39f00"/>
  <circle cx="25" cy="55" r="3.5" fill="#d99600"/>
  <circle cx="24" cy="46" r="3" fill="#f0ac00"/>
  <circle cx="26" cy="37" r="3.5" fill="#e39f00"/>
  <circle cx="31" cy="29" r="3" fill="#d99600"/>
  <circle cx="39" cy="24" r="3.5" fill="#f0ac00"/>
  <circle cx="48" cy="22" r="3" fill="#e39f00"/>
</svg>
